Coordinates
version=1
nRows=9
nColumns=24
inDegrees=yes

Units are S.I. units (second, meters, Newtons, ...)
Angles are in degrees.

endheader
time	pelvis_tilt	pelvis_list	pelvis_rotation	pelvis_tx	pelvis_ty	pelvis_tz	hip_flexion_r	hip_adduction_r	hip_rotation_r	knee_angle_r	ankle_angle_r	subtalar_angle_r	mtp_angle_r	hip_flexion_l	hip_adduction_l	hip_rotation_l	knee_angle_l	ankle_angle_l	subtalar_angle_l	mtp_angle_l	lumbar_extension	lumbar_bending	lumbar_rotation
      2.48000000	     12.92867472	      0.74293200	     -4.77168731	     -0.61664388	      0.94157753	      0.00148319	    -25.46904548	     -2.22479994	      0.65560252	     -7.91083807	     29.14578283	     11.78625241	     13.98627141	      2.06733667	      0.28738559	    -24.18853710	      0.39805441	      6.44065055	     29.10321654	     38.60298621	    -23.77475890	      1.80980225	      6.99863084
      2.48500000	     12.95405646	      0.70127761	     -4.91661912	     -0.61178166	      0.94087994	      0.00136488	    -25.60928549	     -2.30576581	      0.73678402	     -8.32850539	     29.35505718	     11.96413123	     14.04812573	      2.14272364	      0.27257440	    -23.55903939	     -0.22256035	      6.34529641	     28.35511983	     38.56262301	    -23.76936937	      1.68626230	      7.07850819
      2.49000000	     12.97612568	      0.67090612	     -5.04452321	     -0.60690162	      0.94020490	      0.00118995	    -25.73211543	     -2.39632441	      0.76831275	     -8.77918561	     29.56429856	     12.18336536	     14.13280695	      2.22037211	      0.27081934	    -22.83513932	     -0.87364731	      6.20086407	     27.50491860	     38.53043527	    -23.75739109	      1.55674365	      7.14533076
      2.49500000	     13.00155457	      0.64974635	     -5.16499058	     -0.60201635	      0.93957958	      0.00098888	    -25.84443417	     -2.49647437	      0.77761101	     -9.25746230	     29.75345001	     12.41105064	     14.23964544	      2.29279802	      0.27926070	    -22.03919276	     -1.54825845	      5.98803367	     26.56776543	     38.50223046	    -23.74804652	      1.41732420	      7.19651981
      2.50000000	     13.01588364	      0.64062248	     -5.26981336	     -0.59712275	      0.93899731	      0.00072504	    -25.92662167	     -2.60705249	      0.75973166	     -9.77231604	     29.92020150	     12.65589802	     14.37643243	      2.37488060	      0.30521140	    -21.17372819	     -2.23525058	      5.71250995	     25.53492770	     38.47679135	    -23.72489571	      1.27325059	      7.23157833
      2.50500000	     13.03977122	      0.64353276	     -5.37779825	     -0.59222313	      0.93848742	      0.00044581	    -26.00855425	     -2.73513431	      0.73576492	    -10.30212797	     30.06279764	     12.90761374	     14.52592041	      2.44605890	      0.34825334	    -20.28275754	     -2.93717833	      5.40169236	     24.42411735	     38.44124537	    -23.71119784	      1.11253089	      7.29675921
      2.51000000	     13.04400315	      0.66526413	     -5.43214597	     -0.58733341	      0.93801485	      0.00002446	    -26.02468505	     -2.86758228	      0.58681664	    -10.93495822	     30.19223011	     13.23666398	     14.80618095	      2.54137879	      0.41850752	    -19.27859662	     -3.63863634	      5.02646437	     23.26018336	     38.45282775	    -23.67691678	      0.95708073	      7.26045912
      2.51500000	     13.05767040	      0.69718221	     -5.51552337	     -0.58244339	      0.93765353	     -0.00037936	    -26.04669940	     -3.02447642	      0.52832827	    -11.55580398	     30.24300343	     13.50160489	     15.05397416	      2.62300752	      0.50589288	    -18.32108040	     -4.35121901	      4.62108319	     22.00849384	     38.42046436	    -23.65309179	      0.77987075	      7.24808044
      2.52000000	     13.06421409	      0.74235551	     -5.57035783	     -0.57755188	      0.93735739	     -0.00085372	    -26.03100663	     -3.18776055	      0.40517700	    -12.24062736	     30.27444450	     13.81077631	     15.35371973	      2.71751462	      0.61147902	    -17.33825547	     -5.07671432	      4.21608191	     20.74313627	     38.37386841	    -23.62106613	      0.59895991	      7.22271962
